Coordinates
version=1
nRows=30
nColumns=38
inDegrees=no

Units are S.I. units (second, meters, Newtons, ...)
If the header above contains a line with 'inDegrees', this indicates whether rotational values are in degrees (yes) or radians (no).

endheader
time	pelvis_tilt	pelvis_list	pelvis_rotation	pelvis_tx	pelvis_ty	pelvis_tz	hip_flexion_r	hip_adduction_r	hip_rotation_r	knee_angle_r	ankle_angle_r	subtalar_angle_r	mtp_angle_r	hip_flexion_l	hip_adduction_l	hip_rotation_l	knee_angle_l	ankle_angle_l	subtalar_angle_l	mtp_angle_l	lumbar_extension	lumbar_bending	lumbar_rotation	arm_flex_r	arm_add_r	arm_rot_r	elbow_flex_r	pro_sup_r	wrist_flex_r	wrist_dev_r	arm_flex_l	arm_add_l	arm_rot_l	elbow_flex_l	pro_sup_l	wrist_flex_l	wrist_dev_l
20	2.87159	1.28719	-1.18543	0.599162	-0.29385	0.9583	-0.155989	-0.00156786	-0.0952309	0.476285	-0.174835	0	0	-0.191627	-0.0970754	-0.0856427	0.386454	-0.168267	0	0	-0.438359	0.0841016	-0.078187	0.582678	-0.627547	0.379407	1.51603	1.5708	0	0	0.659765	-0.473719	0.604429	1.45068	1.5708	0	0
20.01	2.87805	1.28714	-1.19233	0.600625	-0.292653	0.958326	-0.158884	-0.000614646	-0.0960723	0.459874	-0.174981	0	0	-0.194203	-0.0969319	-0.0843967	0.385432	-0.168144	0	0	-0.43836	0.0819729	-0.0769672	0.582286	-0.625363	0.379633	1.51649	1.5708	0	0	0.660412	-0.474632	0.603676	1.44856	1.5708	0	0
20.02	2.88618	1.28535	-1.20032	0.60214	-0.291391	0.958503	-0.165294	0.000719537	-0.0969854	0.441453	-0.179732	0	0	-0.199252	-0.0972886	-0.0828206	0.383217	-0.168197	0	0	-0.439836	0.0801829	-0.0758696	0.581888	-0.623065	0.379667	1.51651	1.5708	0	0	0.661182	-0.475507	0.603089	1.44625	1.5708	0	0
20.03	2.89593	1.28286	-1.21029	0.603814	-0.290077	0.958666	-0.172022	0.00157799	-0.0981482	0.42652	-0.190005	0	0	-0.205399	-0.0976607	-0.0823394	0.380862	-0.168455	0	0	-0.44196	0.0778178	-0.0743875	0.581508	-0.620983	0.379858	1.51673	1.5708	0	0	0.66198	-0.476602	0.602488	1.44434	1.5708	0	0
20.04	2.90699	1.28048	-1.22212	0.605648	-0.288696	0.958747	-0.178039	0.00172698	-0.099207	0.415286	-0.203971	0	0	-0.211755	-0.0976726	-0.0829301	0.37847	-0.168603	0	0	-0.443797	0.0746769	-0.0725636	0.580861	-0.618846	0.380158	1.51721	1.5708	0	0	0.662524	-0.477698	0.60186	1.44211	1.5708	0	0
20.05	2.91951	1.27816	-1.23615	0.607531	-0.287391	0.958745	-0.182737	0.000762694	-0.100612	0.409705	-0.216494	0	0	-0.218048	-0.0969049	-0.0839567	0.376602	-0.168513	0	0	-0.445637	0.0710422	-0.0700178	0.580849	-0.617002	0.38088	1.51734	1.5708	0	0	0.663206	-0.478659	0.601127	1.44	1.5708	0	0
20.06	2.93236	1.27674	-1.25115	0.609568	-0.286003	0.958601	-0.185527	-0.000928704	-0.101852	0.409253	-0.222731	0	0	-0.223439	-0.0955818	-0.0853931	0.374916	-0.168013	0	0	-0.446165	0.0665727	-0.0670729	0.580521	-0.614999	0.381656	1.51739	1.5708	0	0	0.663559	-0.47968	0.600312	1.4382	1.5708	0	0
20.07	2.94529	1.27595	-1.26634	0.611706	-0.284545	0.95839	-0.187433	-0.00296022	-0.102866	0.412277	-0.223238	0	0	-0.228013	-0.0939129	-0.0863845	0.373694	-0.167332	0	0	-0.445778	0.0618108	-0.0640921	0.580258	-0.613392	0.382955	1.51744	1.5708	0	0	0.663577	-0.480386	0.599452	1.43595	1.5708	0	0
20.08	2.95696	1.2755	-1.28027	0.613905	-0.282974	0.958155	-0.189551	-0.00473915	-0.103142	0.415261	-0.221086	0	0	-0.231834	-0.0925869	-0.087254	0.373466	-0.166432	0	0	-0.444523	0.0573739	-0.0610805	0.579655	-0.611927	0.384502	1.51771	1.5708	0	0	0.66288	-0.480703	0.598202	1.43321	1.5708	0	0
20.09	2.96718	1.27486	-1.2928	0.616116	-0.281399	0.957957	-0.192327	-0.00603013	-0.102676	0.416609	-0.218682	0	0	-0.235436	-0.0915238	-0.0874767	0.373733	-0.165104	0	0	-0.443163	0.0536229	-0.0576621	0.578854	-0.609908	0.385827	1.51745	1.5708	0	0	0.661892	-0.480381	0.596634	1.42987	1.5708	0	0
20.1	2.9182	1.3199	-1.25166	0.618073	-0.277901	0.955891	-0.140293	-0.00551703	-0.086645	0.425044	-0.215575	0	0	-0.186932	-0.0895715	-0.0797183	0.377308	-0.16209	0	0	-0.384012	0.0674573	-0.0518534	0.571928	-0.606075	0.395734	1.51765	1.5708	0	0	0.613406	-0.49263	0.510214	1.52389	1.5708	0	0
20.11	2.92157	1.32249	-1.25782	0.620513	-0.276281	0.955591	-0.139949	-0.00458906	-0.08426	0.42342	-0.213099	0	0	-0.185309	-0.0897815	-0.079147	0.380285	-0.159648	0	0	-0.379094	0.0652268	-0.0519705	0.57616	-0.601039	0.403878	1.51414	1.5708	0	0	0.605268	-0.495214	0.500611	1.52461	1.5708	0	0
20.12	2.92738	1.3229	-1.26547	0.622886	-0.274649	0.955457	-0.144026	-0.00311975	-0.0835078	0.417608	-0.211029	0	0	-0.185964	-0.0903041	-0.0783774	0.383057	-0.157476	0	0	-0.376345	0.0631979	-0.0516248	0.579236	-0.597003	0.410489	1.51127	1.5708	0	0	0.598952	-0.496642	0.492964	1.52404	1.5708	0	0
20.13	2.93397	1.32153	-1.27307	0.625191	-0.273034	0.955453	-0.151536	-0.00109154	-0.0842536	0.408755	-0.209777	0	0	-0.188177	-0.0912907	-0.077309	0.385904	-0.155616	0	0	-0.375495	0.0616847	-0.0508213	0.581206	-0.593726	0.415569	1.50926	1.5708	0	0	0.594076	-0.497249	0.486739	1.52267	1.5708	0	0
20.14	2.93966	1.31926	-1.27957	0.627529	-0.271382	0.955506	-0.16091	0.00156602	-0.0854263	0.397896	-0.209299	0	0	-0.190978	-0.0929478	-0.0766278	0.389133	-0.153909	0	0	-0.375355	0.0606106	-0.0492412	0.582168	-0.591024	0.419462	1.50795	1.5708	0	0	0.590617	-0.49825	0.482211	1.52078	1.5708	0	0
20.15	2.94212	1.31694	-1.28307	0.629875	-0.269762	0.955568	-0.170566	0.00507052	-0.086258	0.385963	-0.209558	0	0	-0.192936	-0.0955502	-0.0765463	0.393683	-0.152112	0	0	-0.375063	0.0602694	-0.0468988	0.58279	-0.588876	0.422991	1.50697	1.5708	0	0	0.587681	-0.498799	0.478356	1.51842	1.5708	0	0
20.16	2.94249	1.31466	-1.28459	0.632199	-0.268319	0.955668	-0.180236	0.00911154	-0.0848631	0.373545	-0.210393	0	0	-0.193506	-0.098782	-0.0765656	0.400198	-0.150218	0	0	-0.375148	0.0604298	-0.0440632	0.58361	-0.587141	0.426322	1.50613	1.5708	0	0	0.585476	-0.498634	0.474737	1.51576	1.5708	0	0
20.17	2.94204	1.31256	-1.28486	0.634421	-0.26699	0.9558	-0.189375	0.0128589	-0.0842592	0.361839	-0.211765	0	0	-0.192647	-0.102315	-0.0761341	0.408397	-0.148379	0	0	-0.375365	0.0609359	-0.0414417	0.584228	-0.585548	0.429278	1.50577	1.5708	0	0	0.583628	-0.497997	0.471252	1.51292	1.5708	0	0
20.18	2.94228	1.31088	-1.28525	0.636513	-0.26576	0.95591	-0.197345	0.0158985	-0.0850146	0.351417	-0.213625	0	0	-0.190126	-0.105641	-0.0751685	0.418403	-0.146679	0	0	-0.375526	0.061316	-0.0393413	0.585023	-0.58432	0.432058	1.50555	1.5708	0	0	0.582043	-0.497372	0.468144	1.51009	1.5708	0	0
20.19	2.94287	1.30945	-1.28525	0.638439	-0.264672	0.955981	-0.204233	0.0186259	-0.0868973	0.342255	-0.215837	0	0	-0.186016	-0.108934	-0.0732457	0.430405	-0.14498	0	0	-0.375819	0.0618683	-0.0379907	0.586098	-0.583169	0.43479	1.50546	1.5708	0	0	0.58107	-0.497335	0.465512	1.50752	1.5708	0	0
20.2	2.94373	1.3082	-1.28501	0.640251	-0.263746	0.956016	-0.210059	0.0211923	-0.0885664	0.334573	-0.218	0	0	-0.180444	-0.112185	-0.0706125	0.444283	-0.143163	0	0	-0.376305	0.0624401	-0.037301	0.587331	-0.581806	0.437383	1.50554	1.5708	0	0	0.581043	-0.497888	0.463576	1.50507	1.5708	0	0
20.21	2.94425	1.30751	-1.2842	0.642017	-0.262861	0.955981	-0.214745	0.0238082	-0.0888444	0.327974	-0.219562	0	0	-0.173215	-0.115611	-0.06827	0.459794	-0.141232	0	0	-0.37631	0.0628287	-0.0370383	0.588255	-0.580151	0.439595	1.50584	1.5708	0	0	0.581522	-0.498718	0.462055	1.50266	1.5708	0	0
20.22	2.94359	1.30745	-1.28187	0.643698	-0.261978	0.955867	-0.218436	0.0267306	-0.0884635	0.321753	-0.220818	0	0	-0.163905	-0.119554	-0.0665718	0.477838	-0.138661	0	0	-0.375474	0.0631733	-0.0373206	0.58868	-0.577837	0.440926	1.50579	1.5708	0	0	0.582289	-0.500059	0.461241	1.50029	1.5708	0	0
20.23	2.94426	1.30735	-1.2801	0.64522	-0.261205	0.95577	-0.221449	0.0293037	-0.0890226	0.317821	-0.221013	0	0	-0.154137	-0.123069	-0.0636684	0.496182	-0.136848	0	0	-0.375116	0.0633453	-0.0382692	0.588938	-0.575183	0.441459	1.50559	1.5708	0	0	0.583744	-0.501761	0.461147	1.4981	1.5708	0	0
20.24	2.94792	1.30718	-1.28025	0.646528	-0.260512	0.955693	-0.22475	0.0313228	-0.0895731	0.314328	-0.220449	0	0	-0.144161	-0.125636	-0.0597487	0.514738	-0.135846	0	0	-0.375334	0.0632638	-0.0402214	0.589802	-0.574267	0.443675	1.50647	1.5708	0	0	0.585381	-0.503212	0.460977	1.49593	1.5708	0	0
20.25	2.95516	1.30705	-1.28309	0.647638	-0.259917	0.955678	-0.228361	0.0326064	-0.0897894	0.310654	-0.21948	0	0	-0.134323	-0.126989	-0.0547932	0.532619	-0.135563	0	0	-0.37602	0.0623782	-0.043265	0.59064	-0.572985	0.445432	1.50718	1.5708	0	0	0.587273	-0.504617	0.46073	1.49376	1.5708	0	0
20.26	2.96386	1.30693	-1.28734	0.648627	-0.259345	0.95572	-0.232112	0.0338064	-0.0886092	0.306873	-0.218272	0	0	-0.124748	-0.127774	-0.0499548	0.550344	-0.135706	0	0	-0.37678	0.0609175	-0.0466657	0.591082	-0.570476	0.445874	1.50717	1.5708	0	0	0.589269	-0.506222	0.460649	1.49162	1.5708	0	0
20.27	2.97375	1.30673	-1.29289	0.649569	-0.258738	0.955835	-0.236069	0.0349849	-0.0863629	0.303068	-0.217055	0	0	-0.116042	-0.128204	-0.0456071	0.566508	-0.135609	0	0	-0.377701	0.0590138	-0.0498592	0.590948	-0.567555	0.445297	1.50698	1.5708	0	0	0.591186	-0.507498	0.4607	1.48948	1.5708	0	0
20.28	2.98408	1.30681	-1.29859	0.650362	-0.258115	0.955963	-0.239828	0.0354739	-0.0838296	0.298581	-0.216265	0	0	-0.107632	-0.128422	-0.0413387	0.58066	-0.13363	0	0	-0.378359	0.0571836	-0.0532213	0.590791	-0.565949	0.445747	1.5072	1.5708	0	0	0.592731	-0.508064	0.460685	1.48729	1.5708	0	0
20.29	2.99404	1.30744	-1.30409	0.651101	-0.257407	0.956082	-0.242918	0.0359298	-0.0812715	0.294262	-0.215831	0	0	-0.100095	-0.128472	-0.0375389	0.590796	-0.129053	0	0	-0.378133	0.0551861	-0.0564181	0.590143	-0.564481	0.446192	1.50723	1.5708	0	0	0.593999	-0.508331	0.460796	1.48476	1.5708	0	0
